<?xml version="1.0" standalone="no"?>
<!DOCTYPE svg PUBLIC "-//W3C//DTD SVG 20010904//EN"
 "http://www.w3.org/TR/2001/REC-SVG-20010904/DTD/svg10.dtd">
<svg version="1.0" xmlns="http://www.w3.org/2000/svg"
 width="842.000000pt" height="842.000000pt" viewBox="0 0 842.000000 842.000000"
 preserveAspectRatio="xMidYMid meet">
<metadata>
Created by potrace 1.11, written by Peter Selinger 2001-2013
</metadata>
<g transform="translate(0.000000,842.000000) scale(0.100000,-0.100000)"
fill="#000000" stroke="none">
<path d="M4200 7514 c-30 -18 -64 -40 -75 -49 -10 -8 -25 -15 -32 -15 -7 0
-13 -4 -13 -10 0 -5 -5 -10 -11 -10 -6 0 -45 -20 -86 -45 -40 -25 -76 -45 -79
-45 -2 0 -21 -11 -42 -24 -51 -33 -119 -72 -169 -97 -24 -12 -43 -25 -43 -30
0 -5 -6 -9 -12 -9 -7 0 -41 -18 -76 -40 -34 -22 -69 -40 -77 -40 -7 0 -15 -4
-17 -8 -1 -4 -24 -20 -50 -35 -27 -15 -48 -31 -48 -35 0 -5 22 -20 50 -35 27
-15 157 -88 289 -162 132 -74 244 -135 250 -135 6 0 11 -3 11 -7 0 -5 10 -13
23 -18 47 -22 112 -60 119 -70 4 -5 8 -6 8 -1 0 5 8 2 18 -7 9 -8 28 -20 42
-26 14 -6 32 -15 40 -21 14 -9 47 -28 200 -112 30 -17 73 -41 96 -54 l40 -24
2 -212 c0 -117 1 -215 2 -218 2 -3 2 -9 1 -14 -3 -12 -2 -55 2 -154 1 -41 -1
-76 -6 -79 -4 -2 -4 -9 -1 -15 4 -6 8 -194 10 -417 1 -223 5 -743 9 -1156 3
-412 7 -956 9 -1208 4 -432 5 -459 23 -472 10 -8 50 -34 88 -57 39 -24 108
-68 155 -99 47 -30 92 -58 100 -62 8 -4 41 -24 72 -45 32 -20 113 -72 180
-115 68 -43 202 -127 298 -188 96 -61 191 -120 210 -131 19 -11 37 -23 40 -27
16 -23 46 -19 103 15 34 20 76 45 94 55 17 10 50 29 72 43 22 15 43 26 45 26
3 0 25 14 49 30 25 17 50 30 56 30 6 0 11 4 11 9 0 5 6 11 13 13 7 2 81 44
165 93 84 50 167 98 184 108 17 10 129 76 249 148 119 71 222 129 228 129 6 0
11 3 11 8 0 4 36 27 80 52 l80 45 -2 1679 -3 1680 -90 54 c-49 30 -110 65
-135 79 -25 13 -58 33 -75 44 -16 10 -37 22 -45 26 -8 3 -17 9 -20 12 -3 3
-21 14 -40 24 -19 9 -48 26 -65 37 -16 11 -37 23 -45 27 -8 4 -59 33 -113 65
-55 32 -100 58 -102 58 -1 0 -87 50 -191 111 -104 61 -209 123 -234 136 -25
14 -52 32 -61 39 -8 7 -26 15 -39 16 l-24 3 -4 -270 c-2 -148 -5 -377 -5 -509
l-2 -239 30 -16 c28 -15 121 -67 205 -114 19 -11 55 -31 80 -45 25 -14 56 -32
70 -41 l25 -16 0 -1182 c0 -650 -2 -1183 -5 -1186 -3 -2 -34 -21 -70 -42 -36
-21 -76 -46 -90 -54 -14 -9 -34 -21 -45 -27 -11 -6 -77 -44 -146 -86 -137 -82
-129 -81 -209 -28 -25 16 -56 35 -70 42 -14 7 -27 15 -30 18 -3 3 -45 30 -95
60 -49 29 -93 57 -96 62 -5 8 -5 346 6 1998 3 564 7 1238 9 1497 l2 473 -105
60 c-58 34 -113 65 -121 71 -8 5 -27 15 -42 22 -16 6 -28 15 -28 19 0 4 -4 8
-10 8 -5 0 -39 18 -75 40 -36 22 -68 40 -70 40 -3 0 -24 12 -48 27 -23 15 -62
38 -87 51 -70 39 -82 46 -127 75 -24 15 -45 27 -48 27 -2 0 -39 20 -81 45 -41
25 -78 45 -82 45 -3 0 -13 6 -21 14 -9 7 -47 30 -86 51 -38 21 -87 49 -107 62
-48 30 -61 28 -128 -13z"/>
<path d="M2486 6660 c-82 -50 -151 -90 -153 -90 -2 0 -32 -17 -66 -39 -34 -21
-129 -78 -212 -126 -82 -48 -166 -97 -185 -109 -19 -12 -42 -26 -50 -30 -8 -4
-24 -12 -35 -19 -11 -7 -65 -39 -120 -71 -55 -32 -111 -66 -125 -75 -14 -8
-37 -22 -52 -31 -14 -8 -76 -44 -137 -80 l-111 -65 0 -1685 0 -1685 22 -14
c12 -7 42 -25 67 -39 25 -14 79 -45 119 -69 41 -24 78 -43 83 -43 5 0 9 -4 9
-9 0 -5 12 -14 28 -20 15 -5 38 -17 52 -26 73 -45 593 -335 601 -335 5 0 9 -4
9 -10 0 -5 4 -10 9 -10 5 0 70 -36 146 -80 76 -44 138 -80 139 -80 2 0 7 475
9 778 l2 254 -125 70 c-185 103 -232 129 -260 144 l-25 13 0 1182 c0 941 2
1185 12 1195 7 7 46 31 86 54 39 22 90 52 112 66 22 13 58 34 80 45 22 12 54
32 72 45 17 13 34 24 38 24 3 0 22 11 43 23 43 28 48 27 124 -25 31 -21 59
-38 62 -38 6 0 125 -75 143 -90 7 -5 15 -10 18 -10 3 0 20 -10 38 -22 l34 -21
-4 -576 c-1 -317 -6 -1026 -9 -1576 -3 -550 -7 -1184 -7 -1408 l-2 -409 45
-25 c25 -14 61 -35 80 -46 103 -58 440 -253 472 -273 21 -13 40 -24 44 -24 3
0 18 -8 32 -19 15 -10 52 -32 82 -49 30 -16 140 -79 245 -139 l190 -109 75 44
c41 25 89 53 105 62 17 10 71 41 120 70 50 29 108 63 130 75 22 13 86 50 143
84 57 34 106 61 109 61 2 0 24 14 49 30 24 17 44 27 44 23 0 -4 4 -3 8 3 4 6
27 21 52 35 83 45 84 48 31 77 -62 33 -110 60 -146 81 -16 10 -57 33 -90 51
-122 67 -205 113 -350 195 -60 35 -141 80 -180 100 -38 21 -87 49 -107 62 -21
12 -40 23 -42 23 -4 0 -65 34 -206 114 -30 17 -26 -89 -34 986 -4 415 -9 1045
-12 1400 -3 355 -6 850 -8 1101 -2 251 -6 461 -10 468 -4 6 -12 11 -17 11 -11
0 -72 41 -77 53 -2 4 -8 7 -12 7 -9 0 -124 70 -147 90 -7 5 -14 10 -17 10 -3
0 -46 27 -97 60 -50 33 -108 70 -130 82 -21 12 -39 25 -39 30 0 4 -5 8 -10 8
-10 0 -281 168 -307 190 -7 5 -17 10 -23 10 -5 0 -10 5 -10 10 0 6 -5 10 -10
10 -6 0 -51 27 -102 60 -50 33 -93 60 -95 60 -2 0 -24 14 -48 30 -24 17 -47
30 -52 30 -4 -1 -75 -41 -157 -90z"/>
</g>
</svg>
